<?xml version="1.0" encoding="UTF-8" standalone="no"?>
<!DOCTYPE svg PUBLIC "-//W3C//DTD SVG 1.1//EN" "http://www.w3.org/Graphics/SVG/1.1/DTD/svg11.dtd">
<svg width="100%" height="100%" viewBox="0 0 385 109" version="1.1" xmlns="http://www.w3.org/2000/svg" xmlns:xlink="http://www.w3.org/1999/xlink" xml:space="preserve" xmlns:serif="http://www.serif.com/" style="fill-rule:evenodd;clip-rule:evenodd;stroke-linecap:round;stroke-linejoin:round;">
    <g id="Artboard1" transform="matrix(3.5452,0,0,1,-219.913,0)">
        <rect x="62.031" y="0" width="108.598" height="108.599" style="fill:none;"/>
        <g id="Layer-14" serif:id="Layer 14" transform="matrix(0.282072,0,0,1,-41.3806,-249.627)">
            <g transform="matrix(1,0,0,-1,0,-582.698)">
                <path d="M420.946,-841.025C446.13,-841.025 466.544,-861.441 466.544,-886.625C466.544,-911.809 446.13,-932.224 420.946,-932.224C395.763,-932.224 375.347,-911.809 375.347,-886.625C375.347,-861.441 395.763,-841.025 420.946,-841.025Z" style="fill:rgb(0,242,169);fill-rule:nonzero;stroke:rgb(0,242,169);stroke-width:3px;"/>
            </g>
            <g transform="matrix(1,0,0,-1,0,-582.698)">
                <path d="M420.945,-833.825C450.105,-833.825 473.744,-857.465 473.744,-886.625C473.744,-915.784 450.105,-939.424 420.945,-939.424C391.785,-939.424 368.146,-915.784 368.146,-886.625C368.146,-857.465 391.785,-833.825 420.945,-833.825Z" style="fill:none;fill-rule:nonzero;stroke:rgb(0,242,169);stroke-width:3px;"/>
            </g>
            <g transform="matrix(1,0,0,1,189,-82.5376)">
                <g transform="matrix(1,0,0,-1,0,-417.659)">
                    <path d="M305.009,-810.819C305.655,-810.027 306.845,-809.919 307.636,-810.567C309.22,-811.863 311.956,-813.375 314.513,-813.339C316.312,-813.339 317.933,-812.799 319.013,-812.007C320.093,-811.215 320.56,-810.315 320.56,-809.415C320.56,-808.947 320.452,-808.623 320.235,-808.263C320.021,-807.903 319.696,-807.543 319.155,-807.183C318.112,-806.499 316.349,-805.887 314.224,-805.491L314.151,-805.491C312.46,-805.167 310.876,-804.735 309.509,-804.087C308.14,-803.438 306.952,-802.539 306.159,-801.279C305.62,-800.415 305.331,-799.407 305.331,-798.327C305.331,-796.167 306.556,-794.295 308.212,-793.071C309.903,-791.847 312.101,-791.163 314.44,-791.163C317.896,-791.163 320.452,-792.854 322.288,-794.043C323.116,-794.619 323.368,-795.771 322.792,-796.599C322.253,-797.463 321.101,-797.715 320.235,-797.139C318.399,-795.915 316.636,-794.835 314.44,-794.835C312.819,-794.835 311.38,-795.339 310.407,-796.059C309.437,-796.779 309.04,-797.571 309.04,-798.327C309.04,-798.759 309.112,-799.047 309.292,-799.335C309.472,-799.623 309.796,-799.947 310.265,-800.271C311.2,-800.919 312.819,-801.495 314.765,-801.854L314.837,-801.854C316.673,-802.215 318.364,-802.683 319.804,-803.367C321.28,-804.087 322.575,-805.022 323.403,-806.354C323.944,-807.219 324.269,-808.299 324.269,-809.415C324.269,-811.719 322.972,-813.699 321.173,-814.995C319.407,-816.291 317.067,-817.047 314.513,-817.047C310.624,-817.011 307.349,-815.067 305.296,-813.447C304.505,-812.799 304.396,-811.611 305.009,-810.819Z" style="fill:rgb(50,33,83);fill-rule:nonzero;"/>
                </g>
                <g transform="matrix(1,0,0,-1,0,-416.903)">
                    <path d="M341.13,-806.427L338.214,-798.687L335.298,-806.427L341.13,-806.427ZM342.606,-810.387L333.858,-810.387L332.095,-815.067C331.771,-815.859 331.015,-816.327 330.222,-816.327C329.97,-816.327 329.755,-816.291 329.538,-816.219C328.493,-815.823 327.989,-814.671 328.351,-813.627L336.306,-792.423C336.63,-791.631 337.423,-791.127 338.214,-791.163C339.042,-791.127 339.798,-791.631 340.122,-792.423L348.079,-813.627C348.438,-814.671 347.935,-815.823 346.89,-816.219C346.71,-816.291 346.458,-816.327 346.206,-816.327C345.415,-816.327 344.657,-815.859 344.37,-815.067L342.606,-810.387Z" style="fill:rgb(50,33,83);fill-rule:nonzero;"/>
                </g>
                <g transform="matrix(1,0,0,-1,0,-416.903)">
                    <path d="M353.237,-814.347L353.237,-793.107C353.237,-792.027 354.101,-791.127 355.218,-791.127L366.989,-791.127C368.034,-791.127 368.97,-792.027 368.97,-793.107C368.97,-794.223 368.034,-795.123 366.989,-795.123L357.233,-795.123L357.233,-801.711L365.622,-801.711C366.702,-801.711 367.601,-802.647 367.601,-803.691C367.601,-804.807 366.702,-805.707 365.622,-805.707L357.233,-805.707L357.233,-814.347C357.233,-815.427 356.333,-816.327 355.218,-816.327C354.101,-816.327 353.237,-815.427 353.237,-814.347Z" style="fill:rgb(50,33,83);fill-rule:nonzero;"/>
                </g>
                <g transform="matrix(1,0,0,-1,0,-416.903)">
                    <path d="M374.589,-814.347L374.589,-793.107C374.589,-791.991 375.454,-791.127 376.569,-791.127L388.341,-791.127C389.386,-791.127 390.321,-791.991 390.321,-793.107C390.321,-794.223 389.386,-795.123 388.341,-795.123L378.585,-795.123L378.585,-801.711L386.974,-801.711C388.054,-801.711 388.954,-802.647 388.954,-803.691C388.954,-804.807 388.054,-805.707 386.974,-805.707L378.585,-805.707L378.585,-812.331L388.341,-812.331C389.386,-812.331 390.321,-813.231 390.321,-814.347C390.321,-815.427 389.386,-816.327 388.341,-816.327L376.677,-816.327C376.604,-816.327 376.604,-816.291 376.604,-816.291L376.569,-816.327C375.454,-816.327 374.589,-815.427 374.589,-814.347Z" style="fill:rgb(50,33,83);fill-rule:nonzero;"/>
                </g>
                <g transform="matrix(1,0,0,-1,0,-416.903)">
                    <path d="M418.071,-793.107L418.071,-814.347C418.071,-815.427 417.136,-816.327 416.056,-816.327C414.938,-816.327 414.075,-815.427 414.075,-814.347L414.075,-799.191L408.892,-806.391C408.495,-806.931 407.919,-807.219 407.271,-807.219L407.198,-807.219C406.552,-807.219 405.938,-806.931 405.542,-806.391L400.396,-799.191L400.396,-814.347C400.396,-815.427 399.495,-816.327 398.38,-816.327C397.3,-816.327 396.399,-815.427 396.399,-814.347L396.399,-793.107C396.399,-792.027 397.3,-791.127 398.38,-791.127L398.487,-791.127C399.063,-791.127 399.712,-791.415 400.071,-791.955L407.235,-801.891L414.399,-791.955C414.796,-791.415 415.37,-791.127 416.019,-791.127L416.056,-791.127C417.136,-791.163 418.071,-792.027 418.071,-793.107Z" style="fill:rgb(50,33,83);fill-rule:nonzero;"/>
                </g>
                <g transform="matrix(1,0,0,-1,0,-416.903)">
                    <path d="M437.132,-806.427L434.216,-798.687L431.3,-806.427L437.132,-806.427ZM438.608,-810.387L429.86,-810.387L428.097,-815.067C427.772,-815.859 427.017,-816.327 426.224,-816.327C425.972,-816.327 425.757,-816.291 425.54,-816.219C424.497,-815.823 423.993,-814.671 424.353,-813.627L432.308,-792.423C432.632,-791.631 433.425,-791.127 434.216,-791.163C435.044,-791.127 435.8,-791.631 436.124,-792.423L444.081,-813.627C444.44,-814.671 443.937,-815.823 442.892,-816.219C442.712,-816.291 442.46,-816.327 442.208,-816.327C441.417,-816.327 440.661,-815.859 440.372,-815.067L438.608,-810.387Z" style="fill:rgb(50,33,83);fill-rule:nonzero;"/>
                </g>
                <g transform="matrix(1,0,0,-1,0,-416.903)">
                    <path d="M461.13,-798.867C461.13,-796.779 459.474,-795.123 457.423,-795.123L452.995,-795.123L452.995,-802.539L457.423,-802.539C459.474,-802.539 461.13,-800.883 461.13,-798.867ZM466.171,-813.339C466.53,-814.383 465.954,-815.499 464.911,-815.859C464.767,-815.896 464.478,-815.967 464.118,-815.967L464.083,-815.967C463.722,-815.967 463.183,-815.896 462.679,-815.571C462.21,-815.283 461.813,-814.815 461.526,-814.312C461.022,-813.268 460.771,-811.971 460.771,-809.991C460.735,-809.307 460.591,-808.839 460.339,-808.443C460.122,-808.047 459.69,-807.688 459.259,-807.399C458.503,-806.896 457.565,-806.607 457.243,-806.535L452.995,-806.535L452.995,-814.347C452.995,-815.427 452.095,-816.327 450.978,-816.327C449.862,-816.327 448.999,-815.427 448.999,-814.347L448.999,-793.107C448.999,-791.991 449.862,-791.127 450.978,-791.127L457.423,-791.127C461.706,-791.127 465.126,-794.583 465.126,-798.867C465.126,-801.243 464.046,-803.331 462.319,-804.771C462.786,-805.131 463.218,-805.563 463.579,-806.104C464.298,-807.147 464.767,-808.479 464.767,-809.991C464.729,-811.071 464.839,-811.755 464.911,-812.115C465.487,-812.295 465.954,-812.728 466.171,-813.339Z" style="fill:rgb(50,33,83);fill-rule:nonzero;"/>
                </g>
                <g transform="matrix(1,0,0,-1,0,-416.903)">
                    <path d="M472.456,-814.347L472.456,-793.287C472.456,-792.243 473.319,-791.307 474.435,-791.307C475.552,-791.307 476.415,-792.243 476.415,-793.287L476.415,-803.619L488.079,-791.919C488.872,-791.127 490.095,-791.127 490.888,-791.919C491.644,-792.675 491.644,-793.935 490.888,-794.727L482.968,-802.611L490.96,-813.087C491.679,-813.915 491.536,-815.175 490.671,-815.859C490.312,-816.184 489.88,-816.327 489.411,-816.327C488.872,-816.327 488.331,-816.075 487.937,-815.607L480.159,-805.419L476.415,-809.235L476.415,-814.347C476.415,-815.427 475.552,-816.327 474.435,-816.327C473.319,-816.327 472.456,-815.427 472.456,-814.347Z" style="fill:rgb(50,33,83);fill-rule:nonzero;"/>
                </g>
                <g transform="matrix(1,0,0,-1,0,-416.903)">
                    <path d="M497.731,-814.347L497.731,-793.107C497.731,-791.991 498.597,-791.127 499.712,-791.127L511.483,-791.127C512.528,-791.127 513.464,-791.991 513.464,-793.107C513.464,-794.223 512.528,-795.123 511.483,-795.123L501.728,-795.123L501.728,-801.711L510.116,-801.711C511.196,-801.711 512.097,-802.647 512.097,-803.691C512.097,-804.807 511.196,-805.707 510.116,-805.707L501.728,-805.707L501.728,-812.331L511.483,-812.331C512.528,-812.331 513.464,-813.231 513.464,-814.347C513.464,-815.427 512.528,-816.327 511.483,-816.327L499.819,-816.327C499.747,-816.327 499.747,-816.291 499.747,-816.291L499.712,-816.327C498.597,-816.327 497.731,-815.427 497.731,-814.347Z" style="fill:rgb(50,33,83);fill-rule:nonzero;"/>
                </g>
                <g transform="matrix(1,0,0,-1,0,-416.903)">
                    <path d="M535.294,-795.123L529.569,-795.123L529.569,-814.347C529.569,-815.463 528.706,-816.327 527.591,-816.327C526.511,-816.327 525.61,-815.463 525.61,-814.347L525.61,-795.123L519.923,-795.123C518.806,-795.123 517.942,-794.187 517.942,-793.107C517.942,-791.991 518.806,-791.127 519.923,-791.127L535.294,-791.127C536.374,-791.127 537.274,-791.991 537.274,-793.107C537.274,-794.187 536.374,-795.123 535.294,-795.123Z" style="fill:rgb(50,33,83);fill-rule:nonzero;"/>
                </g>
            </g>
            <g transform="matrix(1,0,0,-1,0,-630.423)">
                <path d="M412.277,-900.817C410.885,-900.837 409.63,-901.733 408.678,-903.19C406.663,-901.236 404.353,-900.395 402.574,-901.242C400.461,-902.25 399.723,-905.348 400.501,-908.845C400.147,-909.017 399.814,-909.225 399.539,-909.512C397.764,-911.354 398.467,-914.911 401.111,-917.459C403.753,-920.008 407.335,-920.58 409.111,-918.736C409.184,-918.659 409.228,-918.563 409.294,-918.48C409.479,-918.474 409.661,-918.452 409.84,-918.417C410.644,-919.157 411.563,-919.576 412.538,-919.563C415.588,-919.521 418.002,-915.291 417.93,-910.114C417.86,-904.937 415.329,-900.776 412.277,-900.817Z" style="fill:rgb(0,242,169);fill-rule:nonzero;stroke:rgb(50,33,83);stroke-width:3px;stroke-linecap:butt;stroke-linejoin:miter;"/>
            </g>
            <g transform="matrix(1,0,0,-1,0,-603.185)">
                <path d="M431.998,-874.499L431.998,-870.555L418.34,-870.555L418.34,-874.499L412.897,-881.042L412.897,-923.182L437.441,-923.182L437.441,-881.042L431.998,-874.499Z" style="fill:rgb(165,229,239);fill-rule:nonzero;stroke:rgb(50,33,83);stroke-width:1px;stroke-linecap:butt;stroke-linejoin:miter;"/>
            </g>
            <g transform="matrix(1,0,0,-1,0,-603.185)">
                <path d="M431.998,-874.499L431.998,-870.555L418.34,-870.555L418.34,-874.499L412.897,-881.042L412.897,-923.182L437.441,-923.182L437.441,-881.042L431.998,-874.499Z" style="fill:none;fill-rule:nonzero;stroke:rgb(50,33,83);stroke-width:3px;"/>
            </g>
            <g transform="matrix(1,0,0,-1,0,-599.241)">
                <path d="M437.441,-919.237L426.557,-919.237L426.557,-877.098L431.998,-870.555L437.441,-877.098L437.441,-919.237Z" style="fill:rgb(165,229,239);fill-rule:nonzero;stroke:rgb(50,33,83);stroke-width:3px;"/>
            </g>
            <g transform="matrix(1,0,0,-1,0,-604.368)">
                <path d="M413.734,-889.295C418.244,-889.295 421.899,-892.95 421.899,-897.46C421.899,-901.969 418.244,-905.624 413.734,-905.624C409.226,-905.624 405.57,-901.969 405.57,-897.46C405.57,-892.95 409.226,-889.295 413.734,-889.295Z" style="fill:rgb(240,243,78);fill-rule:nonzero;stroke:rgb(50,33,83);stroke-width:3px;"/>
            </g>
            <g transform="matrix(-0.896392,0.443262,-0.443262,-0.896392,375.094,-679.791)">
                <path d="M404.601,-910.747C404.601,-910.747 398.862,-882.461 398.863,-879.889C398.862,-877.319 400.19,-875.617 404.601,-875.616C409.01,-875.615 410.335,-877.319 410.338,-879.889C410.338,-882.459 404.601,-910.747 404.601,-910.747Z" style="fill:rgb(254,190,95);fill-rule:nonzero;stroke:rgb(50,33,83);stroke-width:3px;"/>
            </g>
            <g transform="matrix(1,0,0,-1,0,-596.969)">
                <path d="M441.139,-915.085C440.009,-919.172 436.626,-921.803 431.692,-920.438C426.761,-919.073 425.212,-915.079 426.342,-910.992L436.979,-872.527C438.11,-868.441 441.158,-865.718 446.423,-867.176C451.689,-868.631 452.905,-872.534 451.774,-876.62L441.139,-915.085Z" style="fill:rgb(244,176,96);fill-rule:nonzero;stroke:rgb(50,33,83);stroke-width:3px;"/>
            </g>
            <g transform="matrix(0.65847,0.752607,-0.752607,0.65847,-532.801,546.417)">
                <path d="M440.293,-909.116L446.341,-909.116" style="fill:none;fill-rule:nonzero;stroke:rgb(50,33,83);stroke-width:3px;"/>
            </g>
            <g transform="matrix(0.658549,0.752537,-0.752537,0.658549,-527.668,550.782)">
                <path d="M438.15,-901.359L444.197,-901.359" style="fill:none;fill-rule:nonzero;stroke:rgb(50,33,83);stroke-width:3px;"/>
            </g>
            <g transform="matrix(1,0,0,-1,0,-554.599)">
                <path d="M397.864,-851.369L397.864,-893.781L436.402,-893.781L449.259,-890.712L449.259,-851.369L397.864,-851.369Z" style="fill:rgb(252,204,142);fill-rule:nonzero;stroke:rgb(50,33,83);stroke-width:3px;"/>
            </g>
            <g transform="matrix(0,1,-1,0,-436.173,-118.426)">
                <path d="M415.196,-872.575L457.608,-872.575" style="fill:none;fill-rule:nonzero;stroke:rgb(50,33,83);stroke-width:3px;"/>
            </g>
            <g transform="matrix(1,0,0,-1,0,-526.743)">
                <path d="M407.917,-849.461C405.845,-848.905 403.643,-849.762 401.894,-851.539C400.144,-849.762 397.941,-848.905 395.869,-849.461C392.285,-850.421 390.459,-855.222 391.788,-860.184C393.117,-865.146 397.101,-868.389 400.685,-867.429C401.114,-867.313 401.517,-867.14 401.894,-866.921C402.271,-867.14 402.673,-867.313 403.104,-867.429C406.687,-868.389 410.669,-865.146 411.998,-860.184C413.329,-855.222 411.502,-850.421 407.917,-849.461Z" style="fill:rgb(255,92,102);fill-rule:nonzero;stroke:rgb(50,33,83);stroke-width:3px;"/>
            </g>
            <g transform="matrix(0.787901,-0.615803,0.615803,0.787901,620.997,1251.37)">
                <path d="M398.692,-876.996C396.616,-876.009 395.117,-874.202 394.826,-871.975C394.466,-869.207 396.08,-866.58 398.692,-865.17C400.858,-866.104 402.438,-867.934 402.734,-870.204C403.099,-873.004 401.402,-875.655 398.692,-876.996Z" style="fill:rgb(123,191,123);fill-rule:nonzero;stroke:rgb(50,33,83);stroke-width:3px;"/>
            </g>
        </g>
    </g>
</svg>
