<?xml version="1.0" encoding="UTF-8" standalone="no"?>
<!DOCTYPE svg PUBLIC "-//W3C//DTD SVG 1.1//EN" "http://www.w3.org/Graphics/SVG/1.1/DTD/svg11.dtd">
<svg width="100%" height="100%" viewBox="0 0 109 109" version="1.1" xmlns="http://www.w3.org/2000/svg" xmlns:xlink="http://www.w3.org/1999/xlink" xml:space="preserve" xmlns:serif="http://www.serif.com/" style="fill-rule:evenodd;clip-rule:evenodd;stroke-linecap:round;stroke-linejoin:round;">
    <g transform="matrix(1,0,0,-1,-366.646,-832.325)">
        <path d="M420.946,-841.025C446.13,-841.025 466.544,-861.441 466.544,-886.625C466.544,-911.809 446.13,-932.224 420.946,-932.224C395.763,-932.224 375.347,-911.809 375.347,-886.625C375.347,-861.441 395.763,-841.025 420.946,-841.025Z" style="fill:rgb(0,242,169);fill-rule:nonzero;stroke:rgb(0,242,169);stroke-width:3px;"/>
    </g>
    <g transform="matrix(1,0,0,-1,-366.646,-832.325)">
        <path d="M420.945,-833.825C450.105,-833.825 473.744,-857.465 473.744,-886.625C473.744,-915.784 450.105,-939.424 420.945,-939.424C391.785,-939.424 368.146,-915.784 368.146,-886.625C368.146,-857.465 391.785,-833.825 420.945,-833.825Z" style="fill:none;fill-rule:nonzero;stroke:rgb(0,242,169);stroke-width:3px;"/>
    </g>
    <g transform="matrix(1,0,0,-1,-366.646,-880.051)">
        <path d="M412.277,-900.817C410.885,-900.837 409.63,-901.733 408.678,-903.19C406.663,-901.236 404.353,-900.395 402.574,-901.242C400.461,-902.25 399.723,-905.348 400.501,-908.845C400.147,-909.017 399.814,-909.225 399.539,-909.512C397.764,-911.354 398.467,-914.911 401.111,-917.459C403.753,-920.008 407.335,-920.58 409.111,-918.736C409.184,-918.659 409.228,-918.563 409.294,-918.48C409.479,-918.474 409.661,-918.452 409.84,-918.417C410.644,-919.157 411.563,-919.576 412.538,-919.563C415.588,-919.521 418.002,-915.291 417.93,-910.114C417.86,-904.937 415.329,-900.776 412.277,-900.817Z" style="fill:rgb(0,242,169);fill-rule:nonzero;stroke:rgb(50,33,83);stroke-width:3px;stroke-linecap:butt;stroke-linejoin:miter;"/>
    </g>
    <g transform="matrix(1,0,0,-1,-366.646,-852.812)">
        <path d="M431.998,-874.499L431.998,-870.555L418.34,-870.555L418.34,-874.499L412.897,-881.042L412.897,-923.182L437.441,-923.182L437.441,-881.042L431.998,-874.499Z" style="fill:rgb(165,229,239);fill-rule:nonzero;stroke:rgb(50,33,83);stroke-width:1px;stroke-linecap:butt;stroke-linejoin:miter;"/>
    </g>
    <g transform="matrix(1,0,0,-1,-366.646,-852.812)">
        <path d="M431.998,-874.499L431.998,-870.555L418.34,-870.555L418.34,-874.499L412.897,-881.042L412.897,-923.182L437.441,-923.182L437.441,-881.042L431.998,-874.499Z" style="fill:none;fill-rule:nonzero;stroke:rgb(50,33,83);stroke-width:3px;"/>
    </g>
    <g transform="matrix(1,0,0,-1,-366.646,-848.868)">
        <path d="M437.441,-919.237L426.557,-919.237L426.557,-877.098L431.998,-870.555L437.441,-877.098L437.441,-919.237Z" style="fill:rgb(165,229,239);fill-rule:nonzero;stroke:rgb(50,33,83);stroke-width:3px;"/>
    </g>
    <g transform="matrix(1,0,0,-1,-366.646,-853.995)">
        <path d="M413.734,-889.295C418.244,-889.295 421.899,-892.95 421.899,-897.46C421.899,-901.969 418.244,-905.624 413.734,-905.624C409.226,-905.624 405.57,-901.969 405.57,-897.46C405.57,-892.95 409.226,-889.295 413.734,-889.295Z" style="fill:rgb(240,243,78);fill-rule:nonzero;stroke:rgb(50,33,83);stroke-width:3px;"/>
    </g>
    <g transform="matrix(-0.896392,0.443262,-0.443262,-0.896392,8.44718,-929.418)">
        <path d="M404.601,-910.747C404.601,-910.747 398.862,-882.461 398.863,-879.889C398.862,-877.319 400.19,-875.617 404.601,-875.616C409.01,-875.615 410.335,-877.319 410.338,-879.889C410.338,-882.459 404.601,-910.747 404.601,-910.747Z" style="fill:rgb(254,190,95);fill-rule:nonzero;stroke:rgb(50,33,83);stroke-width:3px;"/>
    </g>
    <g transform="matrix(1,0,0,-1,-366.646,-846.597)">
        <path d="M441.139,-915.085C440.009,-919.172 436.626,-921.803 431.692,-920.438C426.761,-919.073 425.212,-915.079 426.342,-910.992L436.979,-872.527C438.11,-868.441 441.158,-865.718 446.423,-867.176C451.689,-868.631 452.905,-872.534 451.774,-876.62L441.139,-915.085Z" style="fill:rgb(244,176,96);fill-rule:nonzero;stroke:rgb(50,33,83);stroke-width:3px;"/>
    </g>
    <g transform="matrix(0.65847,0.752607,-0.752607,0.65847,-899.447,296.79)">
        <path d="M440.293,-909.116L446.341,-909.116" style="fill:none;fill-rule:nonzero;stroke:rgb(50,33,83);stroke-width:3px;"/>
    </g>
    <g transform="matrix(0.658549,0.752537,-0.752537,0.658549,-894.314,301.154)">
        <path d="M438.15,-901.359L444.197,-901.359" style="fill:none;fill-rule:nonzero;stroke:rgb(50,33,83);stroke-width:3px;"/>
    </g>
    <g transform="matrix(1,0,0,-1,-366.646,-804.227)">
        <path d="M397.864,-851.369L397.864,-893.781L436.402,-893.781L449.259,-890.712L449.259,-851.369L397.864,-851.369Z" style="fill:rgb(252,204,142);fill-rule:nonzero;stroke:rgb(50,33,83);stroke-width:3px;"/>
    </g>
    <g transform="matrix(0,1,-1,0,-802.819,-368.054)">
        <path d="M415.196,-872.575L457.608,-872.575" style="fill:none;fill-rule:nonzero;stroke:rgb(50,33,83);stroke-width:3px;"/>
    </g>
    <g transform="matrix(1,0,0,-1,-366.646,-776.37)">
        <path d="M407.917,-849.461C405.845,-848.905 403.643,-849.762 401.894,-851.539C400.144,-849.762 397.941,-848.905 395.869,-849.461C392.285,-850.421 390.459,-855.222 391.788,-860.184C393.117,-865.146 397.101,-868.389 400.685,-867.429C401.114,-867.313 401.517,-867.14 401.894,-866.921C402.271,-867.14 402.673,-867.313 403.104,-867.429C406.687,-868.389 410.669,-865.146 411.998,-860.184C413.329,-855.222 411.502,-850.421 407.917,-849.461Z" style="fill:rgb(255,92,102);fill-rule:nonzero;stroke:rgb(50,33,83);stroke-width:3px;"/>
    </g>
    <g transform="matrix(0.787901,-0.615803,0.615803,0.787901,254.35,1001.74)">
        <path d="M398.692,-876.996C396.616,-876.009 395.117,-874.202 394.826,-871.975C394.466,-869.207 396.08,-866.58 398.692,-865.17C400.858,-866.104 402.438,-867.934 402.734,-870.204C403.099,-873.004 401.402,-875.655 398.692,-876.996Z" style="fill:rgb(123,191,123);fill-rule:nonzero;stroke:rgb(50,33,83);stroke-width:3px;"/>
    </g>
</svg>
