<?xml version="1.0" encoding="iso-8859-1"?>
<!-- Generator: Adobe Illustrator 19.0.0, SVG Export Plug-In . SVG Version: 6.00 Build 0)  -->
<svg version="1.1" id="Capa_1" xmlns="http://www.w3.org/2000/svg" xmlns:xlink="http://www.w3.org/1999/xlink" x="0px" y="0px"
	 viewBox="0 0 464 464" style="enable-background:new 0 0 464 464;" xml:space="preserve">
<path style="fill:#00F2A9;" d="M344,72c8.8,0,16-7.2,16-16s-7.2-16-16-16H120c-8.8,0-16,7.2-16,16s7.2,16,16,16h16L40,200
	c0,17.6,14.4,32,32,32s32-14.4,32-32c0,17.6,14.4,32,32,32s32-14.4,32-32c0,17.6,14.4,32,32,32s32-14.4,32-32c0,17.6,14.4,32,32,32
	s32-14.4,32-32c0,17.6,14.4,32,32,32s32-14.4,32-32c0,17.6,14.4,32,32,32s32-14.4,32-32L328,72H344z"/>
<g>
	<path style="fill:#322153;" d="M24,464h416c13.6,0,24-10.4,24-24s-10.4-24-24-24h-40V207.2c17.6-4,31.2-19.2,32-37.6l0,0v-0.8V168
		c0-0.8,0-0.8,0-1.6s-0.8-0.8-0.8-1.6V164L344,48l0,0c13.6,0,24-10.4,24-24S357.6,0,344,0H120c-13.6,0-24,10.4-24,24s10.4,24,24,24
		l0,0L33.6,163.2c0,0.8-0.8,0.8-0.8,1.6c0,0,0,0,0,0.8c-0.8,0-0.8,0.8-0.8,2.4l0,0c0,0.8,0,0.8,0,1.6l0,0
		c0.8,18.4,14.4,34.4,32,37.6V416H24c-13.6,0-24,10.4-24,24S10.4,464,24,464z M112,24c0-4.8,3.2-8,8-8h224c4.8,0,8,3.2,8,8
		s-3.2,8-8,8h-16h-0.8c-0.8,0-0.8,0-1.6,0c-0.8,0-0.8,0.8-1.6,0.8h-0.8c0,0,0,0,0,0.8c-0.8,0-0.8,0.8-0.8,1.6l-0.8,0.8
		c0,0.8,0,0.8-0.8,1.6c0,0.8,0,0.8,0,1.6c0,0,0,0,0,0.8v0.8c0,0.8,0,0.8,0,1.6c0,0.8,0.8,0.8,0.8,1.6v0.8L416,170.4
		c-0.8,12-11.2,21.6-24,21.6c-10.4,0-19.2-6.4-22.4-16H392c4.8,0,8-3.2,8-8s-3.2-8-8-8h-27.2L303.2,36.8c-1.6-3.2-4-4.8-7.2-4.8h-32
		l0,0H120C115.2,32,112,28.8,112,24z M189.6,48l-28,112h-44.8l56-112H189.6z M158.4,176c-3.2,9.6-12,16-22.4,16s-19.2-6.4-22.4-16
		H158.4z M200,160h-21.6l28-112H224v120c0,13.6-10.4,24-24,24c-10.4,0-19.2-6.4-22.4-16H200c4.8,0,8-3.2,8-8S204.8,160,200,160z
		 M264,160h-24V48h17.6L288,168.8c0,12.8-11.2,23.2-24,23.2c-10.4,0-19.2-6.4-22.4-16H264c4.8,0,8-3.2,8-8S268.8,160,264,160z
		 M302.4,160l-28-112h16.8l56,112H302.4z M350.4,176c-3.2,9.6-12,16-22.4,16s-19.2-6.4-22.4-16H350.4z M49.6,176H72c4.8,0,8-3.2,8-8
		s-3.2-8-8-8H56l84-112h15.2L96.8,164.8l0,0c-0.8,0.8-0.8,1.6-0.8,3.2c0,13.6-10.4,24-24,24C61.6,192,52.8,185.6,49.6,176z
		 M80,207.2c9.6-2.4,18.4-8,24-15.2c7.2,9.6,19.2,16,32,16s24.8-6.4,32-16c7.2,9.6,19.2,16,32,16s24.8-6.4,32-16
		c7.2,9.6,19.2,16,32,16s24.8-6.4,32-16c7.2,9.6,19.2,16,32,16s24.8-6.4,32-16c5.6,8,14.4,13.6,24,15.2V416H80V207.2z M24,432h416
		c4.8,0,8,3.2,8,8s-3.2,8-8,8H24c-4.8,0-8-3.2-8-8S19.2,432,24,432z"/>
	<path style="fill:#322153;" d="M200,224h-96c-4.8,0-8,3.2-8,8v160c0,4.8,3.2,8,8,8h96c4.8,0,8-3.2,8-8V232
		C208,227.2,204.8,224,200,224z M192,384h-80V240h80V384z"/>
	<path style="fill:#322153;" d="M360,224H232c-4.8,0-8,3.2-8,8v128c0,4.8,3.2,8,8,8h128c4.8,0,8-3.2,8-8V232
		C368,227.2,364.8,224,360,224z M352,352H240V240h112V352z"/>
	<path style="fill:#322153;" d="M264,336c2.4,0,4-0.8,5.6-2.4l64-64c3.2-3.2,3.2-8,0-11.2s-8-3.2-11.2,0l-64,64
		c-3.2,3.2-3.2,8,0,11.2C260,335.2,261.6,336,264,336z"/>
	<path style="fill:#322153;" d="M264,304c2.4,0,4-0.8,5.6-2.4l32-32c3.2-3.2,3.2-8,0-11.2s-8-3.2-11.2,0l-32,32
		c-3.2,3.2-3.2,8,0,11.2C260,303.2,261.6,304,264,304z"/>
	<path style="fill:#322153;" d="M322.4,290.4l-32,32c-3.2,3.2-3.2,8,0,11.2c1.6,1.6,4,2.4,5.6,2.4s4-0.8,5.6-2.4l32-32
		c3.2-3.2,3.2-8,0-11.2S325.6,287.2,322.4,290.4z"/>
	<circle style="fill:#322153;" cx="168" cy="296" r="16"/>
	<path style="fill:#322153;" d="M328,384h-64c-4.8,0-8,3.2-8,8s3.2,8,8,8h64c4.8,0,8-3.2,8-8S332.8,384,328,384z"/>
</g>
<g>
</g>
<g>
</g>
<g>
</g>
<g>
</g>
<g>
</g>
<g>
</g>
<g>
</g>
<g>
</g>
<g>
</g>
<g>
</g>
<g>
</g>
<g>
</g>
<g>
</g>
<g>
</g>
<g>
</g>
</svg>
