<?xml version="1.0" encoding="iso-8859-1"?>
<!-- Generator: Adobe Illustrator 19.0.0, SVG Export Plug-In . SVG Version: 6.00 Build 0)  -->
<svg version="1.1" id="Capa_1" xmlns="http://www.w3.org/2000/svg" xmlns:xlink="http://www.w3.org/1999/xlink" x="0px" y="0px"
	 viewBox="0 0 464 464" style="enable-background:new 0 0 464 464;" xml:space="preserve">
<circle style="fill:#00F2A9;" cx="232" cy="136" r="64"/>
<g>
	<path style="fill:#322153;" d="M232,272c2.272,0,4.44-0.968,5.952-2.656C241.96,264.88,336,159.44,336,104
		C336,46.656,289.344,0,232,0S128,46.656,128,104c0,55.44,94.04,160.88,98.048,165.344C227.56,271.032,229.728,272,232,272z M232,16
		c48.52,0,88,39.48,88,88c0,38.136-58.808,114.088-88,147.88c-29.192-33.784-88-109.72-88-147.88C144,55.48,183.48,16,232,16z"/>
	<path style="fill:#322153;" d="M304,104c0-39.704-32.296-72-72-72c-39.696,0-72,32.296-72,72s32.304,72,72,72
		C271.704,176,304,143.704,304,104z M176,104c0-30.872,25.12-56,56-56c30.872,0,56,25.128,56,56s-25.128,56-56,56
		C201.12,160,176,134.872,176,104z"/>
	<path style="fill:#322153;" d="M360,384H104c-22.056,0-40,17.944-40,40s17.944,40,40,40h256c4.424,0,8-3.576,8-8s-3.576-8-8-8H104
		c-13.232,0-24-10.768-24-24s10.768-24,24-24h256c22.056,0,40-17.944,40-40s-17.944-40-40-40H104c-13.232,0-24-10.768-24-24
		s10.768-24,24-24h96c4.416,0,8-3.576,8-8s-3.584-8-8-8h-96c-22.056,0-40,17.944-40,40s17.944,40,40,40h256
		c13.232,0,24,10.768,24,24S373.232,384,360,384z"/>
</g>
<g>
</g>
<g>
</g>
<g>
</g>
<g>
</g>
<g>
</g>
<g>
</g>
<g>
</g>
<g>
</g>
<g>
</g>
<g>
</g>
<g>
</g>
<g>
</g>
<g>
</g>
<g>
</g>
<g>
</g>
</svg>
