<?xml version="1.0" encoding="iso-8859-1"?>
<!-- Generator: Adobe Illustrator 19.0.0, SVG Export Plug-In . SVG Version: 6.00 Build 0)  -->
<svg version="1.1" id="Capa_1" xmlns="http://www.w3.org/2000/svg" xmlns:xlink="http://www.w3.org/1999/xlink" x="0px" y="0px"
	 viewBox="0 0 464 464" style="enable-background:new 0 0 464 464;" xml:space="preserve">
<path style="fill:#00F2A9;" d="M225.6,136c-68,3.2-121.6,62.4-121.6,132v124h256V264C360,191.2,298.4,132.8,225.6,136z"/>
<g>
	<path style="fill:#322153;" d="M96,236v120.8l-33.6,34.4c-6.4,7.2-8.8,16.8-4.8,25.6c4,8.8,12.8,15.2,22.4,15.2h112.8
		c4,18.4,20,32,39.2,32s35.2-13.6,39.2-32H384c9.6,0,18.4-5.6,22.4-15.2c4-8.8,1.6-19.2-4.8-25.6L368,356.8V232
		c0-37.6-15.2-72-42.4-98.4C301.6,111.2,272,98.4,240,96V79.2c18.4-4,32-20,32-39.2c0-22.4-17.6-40-40-40s-40,17.6-40,40
		c0,19.2,13.6,35.2,32,39.2V96C153.6,100.8,96,162.4,96,236z M232,448c-10.4,0-19.2-6.4-22.4-16h44C251.2,441.6,242.4,448,232,448z
		 M352,232v120h-56c-4.8,0-8,3.2-8,8s3.2,8,8,8h60.8l33.6,34.4c3.2,3.2,2.4,7.2,1.6,8.8c-0.8,2.4-4,5.6-8,5.6H80c-4,0-6.4-2.4-8-5.6
		c-0.8-1.6-1.6-4.8,1.6-8.8l32.8-34.4H264c4.8,0,8-3.2,8-8s-3.2-8-8-8H112V236c0-64.8,51.2-120.8,114.4-123.2c1.6,0,4,0,5.6,0
		c31.2,0,60,12,82.4,33.6C338.4,168,352,199.2,352,232z M208,40c0-13.6,10.4-24,24-24s24,10.4,24,24c0,10.4-6.4,19.2-16,22.4V40
		c0-4.8-3.2-8-8-8s-8,3.2-8,8v22.4C215.2,59.2,208,50.4,208,40z"/>
	<path style="fill:#322153;" d="M128.8,232c0,4.8,3.2,8,8,8s8-3.2,8-8c0-48.8,39.2-88,87.2-88c4.8,0,8-3.2,8-8s-3.2-8-8-8
		C175.2,128,128.8,174.4,128.8,232z"/>
	<path style="fill:#322153;" d="M194.4,301.6c1.6,1.6,3.2,2.4,5.6,2.4c2.4,0,4-0.8,5.6-2.4l63.2-64c3.2-3.2,3.2-8,0-11.2
		s-8-3.2-11.2,0l-63.2,64C191.2,293.6,192,298.4,194.4,301.6z"/>
	<path style="fill:#322153;" d="M200,272c2.4,0,4-0.8,5.6-2.4l32-32c3.2-3.2,3.2-8,0-11.2s-8-3.2-11.2,0l-32,32
		c-3.2,3.2-3.2,8,0,11.2C196,271.2,198.4,272,200,272z"/>
	<path style="fill:#322153;" d="M257.6,258.4l-32,32c-3.2,3.2-3.2,8,0,11.2c1.6,1.6,3.2,2.4,5.6,2.4c2.4,0,4-0.8,5.6-2.4l32-32
		c3.2-3.2,3.2-8,0-11.2C266.4,255.2,260.8,255.2,257.6,258.4z"/>
</g>
<g>
</g>
<g>
</g>
<g>
</g>
<g>
</g>
<g>
</g>
<g>
</g>
<g>
</g>
<g>
</g>
<g>
</g>
<g>
</g>
<g>
</g>
<g>
</g>
<g>
</g>
<g>
</g>
<g>
</g>
</svg>
