<?xml version="1.0" encoding="iso-8859-1"?>
<!-- Generator: Adobe Illustrator 19.0.0, SVG Export Plug-In . SVG Version: 6.00 Build 0)  -->
<svg version="1.1" id="Capa_1" xmlns="http://www.w3.org/2000/svg" xmlns:xlink="http://www.w3.org/1999/xlink" x="0px" y="0px"
	 viewBox="0 0 464.8 464.8" style="enable-background:new 0 0 464.8 464.8;" xml:space="preserve">
<path style="fill:#00F2A9;" d="M168.787,200c-17.6,0-32,14.4-32,32v96c0,17.6,14.4,32,32,32h128c17.6,0,32-14.4,32-32v-96
	c0-17.6-14.4-32-32-32H168.787z"/>
<g>
	<path style="fill:#322153;" d="M424.787,32h-56V8c0-4.8-3.2-8-8-8s-8,3.2-8,8v24h-240V8c0-4.8-3.2-8-8-8s-8,3.2-8,8v24h-56
		c-22.4,0-40,17.6-40,40v288c0,20.8,16,37.6,36,40l52.8,52.8c7.2,7.2,17.6,12,28,12h229.6c10.4,0,20.8-4,28-12l22.4-22.4l0,0
		l30.4-30.4c20-1.6,36-19.2,36-40V72C464.787,49.6,447.187,32,424.787,32z M347.187,448h-228.8c-6.4,0-12.8-2.4-16.8-7.2l-41.6-40.8
		h345.6l-16,16h-284.8c-4.8,0-8,3.2-8,8s3.2,8,8,8h268.8l-8.8,8.8C359.987,445.6,353.587,448,347.187,448z M448.787,360
		c0,13.6-10.4,24-24,24h-384c-13.6,0-24-10.4-24-24V72c0-13.6,10.4-24,24-24h56v16.8c-18.4,4-32,20-32,39.2c0,22.4,17.6,40,40,40
		s40-17.6,40-40c0-19.2-13.6-35.2-32-39.2V48h240v16.8c-18.4,4-32,20-32,39.2c0,22.4,17.6,40,40,40s40-17.6,40-40
		c0-19.2-13.6-35.2-32-39.2V48h56c13.6,0,24,10.4,24,24V360z M104.787,112c4.8,0,8-3.2,8-8V81.6c9.6,3.2,16,12,16,22.4
		c0,13.6-10.4,24-24,24s-24-10.4-24-24c0-10.4,6.4-19.2,16-22.4V104C96.787,108.8,99.987,112,104.787,112z M360.787,112
		c4.8,0,8-3.2,8-8V81.6c9.6,3.2,16,12,16,22.4c0,13.6-10.4,24-24,24s-24-10.4-24-24c0-10.4,6.4-19.2,16-22.4V104
		C352.787,108.8,355.987,112,360.787,112z"/>
	<path style="fill:#322153;" d="M296.787,160h-128c-22.4,0-40,17.6-40,40v96c0,22.4,17.6,40,40,40h128c22.4,0,40-17.6,40-40v-96
		C336.787,177.6,319.187,160,296.787,160z M320.787,296c0,13.6-10.4,24-24,24h-128c-13.6,0-24-10.4-24-24v-96c0-13.6,10.4-24,24-24
		h128c13.6,0,24,10.4,24,24V296z"/>
	<path style="fill:#322153;" d="M424.787,320h-64c-4.8,0-8,3.2-8,8s3.2,8,8,8h64c4.8,0,8-3.2,8-8S429.587,320,424.787,320z"/>
	<path style="fill:#322153;" d="M360.787,304h32c4.8,0,8-3.2,8-8s-3.2-8-8-8h-32c-4.8,0-8,3.2-8,8S355.987,304,360.787,304z"/>
	<path style="fill:#322153;" d="M424.787,256h-64c-4.8,0-8,3.2-8,8s3.2,8,8,8h64c4.8,0,8-3.2,8-8S429.587,256,424.787,256z"/>
	<path style="fill:#322153;" d="M360.787,240h32c4.8,0,8-3.2,8-8s-3.2-8-8-8h-32c-4.8,0-8,3.2-8,8
		C352.787,236.8,355.987,240,360.787,240z"/>
	<path style="fill:#322153;" d="M104.787,224h-32c-4.8,0-8,3.2-8,8c0,4.8,3.2,8,8,8h32c4.8,0,8-3.2,8-8S109.587,224,104.787,224z"/>
	<path style="fill:#322153;" d="M40.787,272h32c4.8,0,8-3.2,8-8s-3.2-8-8-8h-32c-4.8,0-8,3.2-8,8S35.987,272,40.787,272z"/>
	<path style="fill:#322153;" d="M104.787,288h-64c-4.8,0-8,3.2-8,8s3.2,8,8,8h64c4.8,0,8-3.2,8-8S109.587,288,104.787,288z"/>
	<path style="fill:#322153;" d="M104.787,320h-32c-4.8,0-8,3.2-8,8s3.2,8,8,8h32c4.8,0,8-3.2,8-8S109.587,320,104.787,320z"/>
</g>
<g>
</g>
<g>
</g>
<g>
</g>
<g>
</g>
<g>
</g>
<g>
</g>
<g>
</g>
<g>
</g>
<g>
</g>
<g>
</g>
<g>
</g>
<g>
</g>
<g>
</g>
<g>
</g>
<g>
</g>
</svg>
