<svg id="Capa_1" data-name="Capa 1" xmlns="http://www.w3.org/2000/svg" viewBox="0 0 298.69 425.84"><defs><style>.cls-1{fill:#00f2a9;}.cls-2{fill:#322153;}</style></defs><title>pen</title><polygon class="cls-1" points="24.49 274.55 68.38 263.53 79.4 307.43 123.29 296.41 134.31 340.3 298.69 65.75 188.88 0 24.49 274.55"/><path class="cls-2" d="M48.08,311.28l5.59,115.24a8.23,8.23,0,0,0,11.67,7L169.56,384a2.94,2.94,0,0,0,1.92-1.65l.41-.68.41-.69L336.69,106.45a39.61,39.61,0,0,0-13.77-54.87L268,18.71a39.61,39.61,0,0,0-54.87,13.77l-164,273.86-.41.69-.41.68C48.21,309.5,47.8,310.18,48.08,311.28Zm97.05-87.35c4.12,2.47,8.51,1.37,11-2.75L250.63,63.31l13.73,8.22L252,92.12c-2.47,4.12-1.37,8.51,2.75,11s8.51,1.36,11-2.76l12.33-20.59L291.81,88l-45.21,75.5c-2.46,4.12-1.36,8.51,2.76,11s8.51,1.37,11-2.75l45.21-75.5,13.72,8.22L168.85,355.62l-5.51-21.95,80.55-134.53c2.47-4.11,1.37-8.5-2.75-11s-8.51-1.36-11,2.76L149.62,325.45l-22,5.51L249.31,127.8c2.47-4.12,1.37-8.51-2.75-11s-8.51-1.36-11,2.76L113.94,322.74l-5.51-21.94,31.24-52.17c2.46-4.12,1.36-8.51-2.76-11s-8.5-1.37-11,2.75L94.71,292.58l-21.95,5.51L223.17,46.87l13.73,8.22L142.38,213C139.91,217.08,141,221.47,145.13,223.93ZM69,413.34l-4.48-96.86L94.17,309l9.09,36.21c.28,1.1.55,2.2,1.24,2.61.27,1.1,1.65,1.92,2.33,2.33s2.06,1.23,3.16,1,1.78.13,2.88-.14l36.21-9.09,7.44,29.63ZM260.2,31.75l54.91,32.87a23.3,23.3,0,0,1,11,25.24l-94-56.3C240.44,27.38,251.28,26.4,260.2,31.75Z" transform="translate(-47.98 -8.44)"/></svg>