<?xml version="1.0" encoding="iso-8859-1"?>
<!-- Generator: Adobe Illustrator 19.0.0, SVG Export Plug-In . SVG Version: 6.00 Build 0)  -->
<svg version="1.1" id="Capa_1" xmlns="http://www.w3.org/2000/svg" xmlns:xlink="http://www.w3.org/1999/xlink" x="0px" y="0px"
	 viewBox="0 0 464 464" style="enable-background:new 0 0 464 464;" xml:space="preserve">
<circle style="fill:#00F2A9;" cx="232" cy="264" r="96"/>
<g>
	<path style="fill:#322153;" d="M232,48c4.424,0,8-3.584,8-8V8c0-4.416-3.576-8-8-8s-8,3.584-8,8v32C224,44.416,227.576,48,232,48z"
		/>
	<path style="fill:#322153;" d="M8,240h32c4.424,0,8-3.584,8-8s-3.576-8-8-8H8c-4.424,0-8,3.584-8,8C0,236.416,3.576,240,8,240z"/>
	<path style="fill:#322153;" d="M424,240h32c4.424,0,8-3.584,8-8s-3.576-8-8-8h-32c-4.424,0-8,3.584-8,8
		C416,236.416,419.576,240,424,240z"/>
	<path style="fill:#322153;" d="M90.576,101.888c1.56,1.56,3.608,2.344,5.656,2.344s4.096-0.784,5.656-2.344
		c3.128-3.128,3.128-8.184,0-11.312L79.264,67.952c-3.128-3.128-8.184-3.128-11.312,0s-3.128,8.184,0,11.312L90.576,101.888z"/>
	<path style="fill:#322153;" d="M390.392,398.392c2.048,0,4.096-0.784,5.656-2.344c3.128-3.128,3.128-8.184,0-11.312l-22.624-22.624
		c-3.128-3.128-8.184-3.128-11.312,0s-3.128,8.184,0,11.312l22.624,22.624C386.296,397.608,388.344,398.392,390.392,398.392z"/>
	<path style="fill:#322153;" d="M103.504,362.112c-3.128-3.128-8.184-3.128-11.312,0l-22.624,22.624
		c-3.128,3.128-3.128,8.184,0,11.312c1.56,1.56,3.608,2.344,5.656,2.344s4.096-0.784,5.656-2.344l22.624-22.624
		C106.624,370.296,106.624,365.232,103.504,362.112z"/>
	<path style="fill:#322153;" d="M369.376,104.232c2.048,0,4.096-0.784,5.656-2.344l22.624-22.624c3.128-3.128,3.128-8.184,0-11.312
		s-8.184-3.128-11.312,0L363.72,90.576c-3.128,3.128-3.128,8.184,0,11.312C365.28,103.456,367.328,104.232,369.376,104.232z"/>
	<path style="fill:#322153;" d="M200,432h64c4.424,0,8-3.576,8-8s-3.576-8-8-8h-64c-4.424,0-8,3.576-8,8S195.576,432,200,432z"/>
	<path style="fill:#322153;" d="M200,464h64c4.424,0,8-3.576,8-8s-3.576-8-8-8h-64c-4.424,0-8,3.576-8,8S195.576,464,200,464z"/>
	<path style="fill:#322153;" d="M192,361.976V392c0,4.368,3.504,7.928,7.872,8c21.904,0.344,36.616,0.536,46.6,0.536
		c20.264,0,21.088-0.808,23.128-2.816c1.528-1.504,2.4-3.576,2.4-5.72v-30.024c55.528-17.12,96-68.904,96-129.976
		c0-74.992-61.008-136-136-136S96,157.008,96,232C96,293.072,136.472,344.856,192,361.976z M256,384.408
		c-9.92,0.152-29.136-0.032-48-0.288v-18.368c7.808,1.392,15.8,2.248,24,2.248c8.2,0,16.192-0.856,24-2.248V384.408z M240,267.312
		l29.656-29.656c3.128-3.128,3.128-8.184,0-11.312s-8.184-3.128-11.312,0L240,244.688V200c0-4.416-3.576-8-8-8s-8,3.584-8,8v44.688
		l-18.344-18.344c-3.128-3.128-8.184-3.128-11.312,0s-3.128,8.184,0,11.312L224,267.312v52.28c-44.784-4.056-80-41.768-80-87.592
		c0-48.52,39.48-88,88-88s88,39.48,88,88c0,45.824-35.216,83.536-80,87.592V267.312z M232,112c66.168,0,120,53.832,120,120
		c0,63.472-49.56,115.448-112,119.592v-16c53.608-4.112,96-48.952,96-103.592c0-57.344-46.656-104-104-104s-104,46.656-104,104
		c0,54.64,42.392,99.48,96,103.592v16c-62.44-4.144-112-56.12-112-119.592C112,165.832,165.832,112,232,112z"/>
</g>
<g>
</g>
<g>
</g>
<g>
</g>
<g>
</g>
<g>
</g>
<g>
</g>
<g>
</g>
<g>
</g>
<g>
</g>
<g>
</g>
<g>
</g>
<g>
</g>
<g>
</g>
<g>
</g>
<g>
</g>
</svg>
