<?xml version="1.0" encoding="iso-8859-1"?>
<!-- Generator: Adobe Illustrator 19.0.0, SVG Export Plug-In . SVG Version: 6.00 Build 0)  -->
<svg version="1.1" id="Capa_1" xmlns="http://www.w3.org/2000/svg" xmlns:xlink="http://www.w3.org/1999/xlink" x="0px" y="0px"
	 viewBox="0 0 488.032 488.032" style="enable-background:new 0 0 488.032 488.032;" xml:space="preserve">
<path style="fill:#00F2A9;" d="M340.436,264.032l-16,32v160c0,17.6,14.4,32,32,32h32c17.6,0,32-14.4,32-32v-160l-16-32
	c8.8,0,16-7.2,16-16s-7.2-16-16-16h-64c-8.8,0-16,7.2-16,16S331.636,264.032,340.436,264.032z"/>
<g>
	<path style="fill:#322153;" d="M356.436,288.032L356.436,288.032c-4.8,0-8,4-8,8c0,32.8,0.8,86.4,0,94.4c-0.8,1.6,0,4,0.8,5.6
		c1.6,2.4,4,4.8,7.2,4.8c0.8,0,1.6,0,1.6,0c7.2-1.6,7.2-1.6,6.4-104C364.436,291.232,360.436,288.032,356.436,288.032z"/>
	<path style="fill:#322153;" d="M120.436,166.432l-28,224.8v0.8c0,40,32,72,72,72s72-32,72-72v-0.8l-28-224.8
		c11.2-4.8,20.8-12,29.6-20.8c20.8-20.8,32-45.6,31.2-70.4c-0.8-25.6-12.8-52-35.2-72.8c-2.4-2.4-5.6-3.2-8.8-1.6
		c-3.2,0.8-4.8,4-4.8,7.2v59.2l-56,28l-56-28v-59.2c0-3.2-1.6-6.4-4.8-7.2c-3.2-1.6-6.4-0.8-8.8,1.6c-22.4,20.8-34.4,46.4-35.2,72.8
		c-0.8,25.6,10.4,49.6,31.2,70.4C99.636,154.432,109.236,160.832,120.436,166.432z M92.436,28.832v43.2c0,3.2,1.6,5.6,4.8,7.2l64,32
		c2.4,0.8,4.8,0.8,7.2,0l64-32c2.4-1.6,4.8-4,4.8-7.2v-43.2c10.4,14.4,16.8,30.4,16.8,46.4c0,20.8-8.8,41.6-26.4,59.2
		c-8.8,8.8-18.4,15.2-29.6,20c-3.2,1.6-5.6,4.8-4.8,8.8l27.2,229.6c0,30.4-25.6,55.2-56,55.2s-56-24.8-56-55.2l28.8-230.4
		c0.8-4-1.6-7.2-4.8-8.8c-11.2-4.8-21.6-11.2-29.6-20c-18.4-16.8-27.2-37.6-27.2-58.4C76.436,59.232,82.036,43.232,92.436,28.832z"
		/>
	<path style="fill:#322153;" d="M124.436,392.032c0,22.4,17.6,40,40,40s40-17.6,40-40s-17.6-40-40-40
		C142.836,352.032,124.436,369.632,124.436,392.032z M188.436,392.032c0,13.6-10.4,24-24,24s-24-10.4-24-24s10.4-24,24-24
		S188.436,378.432,188.436,392.032z"/>
	<path style="fill:#322153;" d="M164.436,336.032c4.8,0,8-3.2,8-8v-160c0-4.8-3.2-8-8-8s-8,3.2-8,8v160
		C156.436,332.832,159.636,336.032,164.436,336.032z"/>
	<path style="fill:#322153;" d="M317.236,260.832c-0.8,0.8-0.8,1.6-0.8,3.2v160c0,22.4,17.6,40,40,40h32c22.4,0,40-17.6,40-40v-160
		c0-1.6,0-2.4-0.8-3.2l-12-23.2c7.2-4,12.8-12,12.8-20.8c0-13.6-10.4-24-24-24h-8V8.032c0-4.8-3.2-8-8-8h-32c-4.8,0-8,3.2-8,8v184
		h-8c-13.6,0-24,10.4-24,24c0,8.8,4.8,16.8,12.8,20.8L317.236,260.832L317.236,260.832z M380.436,16.032v16h-16v-16H380.436z
		 M364.436,48.032h16v144h-16V48.032z M340.436,208.032h64c4.8,0,8,3.2,8,8s-3.2,8-8,8c-2.4,0-5.6,1.6-7.2,4s-1.6,5.6,0,8l15.2,30.4
		v149.6h-56c-4.8,0-8,3.2-8,8s3.2,8,8,8h54.4c-3.2,9.6-12,16-22.4,16h-32c-12.8,0-24-10.4-24-24v-152h56c4.8,0,8-3.2,8-8s-3.2-8-8-8
		h-51.2l8-16h11.2c4.8,0,8-3.2,8-8s-3.2-8-8-8h-16l0,0l0,0c-4.8,0-8-3.2-8-8S335.636,208.032,340.436,208.032z"/>
</g>
<g>
</g>
<g>
</g>
<g>
</g>
<g>
</g>
<g>
</g>
<g>
</g>
<g>
</g>
<g>
</g>
<g>
</g>
<g>
</g>
<g>
</g>
<g>
</g>
<g>
</g>
<g>
</g>
<g>
</g>
</svg>
