<?xml version="1.0" encoding="utf-8"?>
<!-- Generator: Adobe Illustrator 23.1.0, SVG Export Plug-In . SVG Version: 6.00 Build 0)  -->
<svg version="1.1" id="Capa_1" xmlns="http://www.w3.org/2000/svg" xmlns:xlink="http://www.w3.org/1999/xlink" x="0px" y="0px"
	 viewBox="0 0 353.4 439.89" style="enable-background:new 0 0 353.4 439.89;" xml:space="preserve">
<style type="text/css">
	.st0{fill:#00F2A9;}
	.st1{fill:#322153;}
</style>
<polygon class="st0" points="72.47,282.99 116.36,271.98 127.38,315.87 171.27,304.85 182.29,348.75 346.68,74.2 236.86,8.44 "/>
<path class="st1" d="M48.08,311.28l5.59,115.24c0.28,5.76,6.46,9.46,11.67,6.99l104.23-49.49c1.1-0.28,1.51-0.96,1.92-1.65
	l0.41-0.69l0.41-0.69l164.39-274.55c11.51-19.22,5.45-43.36-13.77-54.87l-54.91-32.88c-19.22-11.51-43.36-5.45-54.87,13.77
	L49.17,306.34c-0.41,0.69-0.41,0.69-0.41,0.69l-0.41,0.69C48.21,309.5,47.8,310.18,48.08,311.28z M145.13,223.93
	c4.12,2.47,8.51,1.36,10.97-2.75l94.52-157.87l13.73,8.22l-12.33,20.59c-2.47,4.12-1.36,8.51,2.75,10.97
	c4.12,2.47,8.51,1.36,10.97-2.75l12.33-20.59l13.73,8.22l-45.21,75.5c-2.47,4.12-1.36,8.51,2.75,10.97
	c4.12,2.47,8.51,1.36,10.97-2.75l45.21-75.5l13.73,8.22L168.85,355.62l-5.51-21.95l80.55-134.53c2.47-4.12,1.36-8.51-2.75-10.97
	s-8.51-1.36-10.97,2.75l-80.55,134.53l-21.95,5.51L249.31,127.8c2.47-4.12,1.36-8.51-2.75-10.97c-4.12-2.47-8.51-1.36-10.97,2.75
	L113.94,322.74l-5.51-21.95l31.23-52.16c2.47-4.12,1.36-8.51-2.75-10.97s-8.51-1.36-10.97,2.75l-31.23,52.16l-21.95,5.51
	L223.17,46.87l13.73,8.22l-94.52,157.87C139.91,217.08,141.01,221.47,145.13,223.93z M69.02,413.34l-4.48-96.86l29.63-7.44
	l9.09,36.21c0.28,1.1,0.55,2.19,1.24,2.61c0.28,1.1,1.65,1.92,2.33,2.33c0.69,0.41,2.06,1.23,3.16,0.96
	c1.1-0.28,1.78,0.14,2.88-0.14l36.21-9.09l7.44,29.63L69.02,413.34z M260.2,31.75l54.91,32.88c8.92,5.34,13.19,15.35,11,25.23
	l-94.03-56.3C240.44,27.38,251.28,26.4,260.2,31.75z"/>
</svg>
