<?xml version="1.0" encoding="iso-8859-1"?>
<!-- Generator: Adobe Illustrator 19.0.0, SVG Export Plug-In . SVG Version: 6.00 Build 0)  -->
<svg version="1.1" id="Capa_1" xmlns="http://www.w3.org/2000/svg" xmlns:xlink="http://www.w3.org/1999/xlink" x="0px" y="0px"
	 viewBox="0 0 487.732 487.732" style="enable-background:new 0 0 487.732 487.732;" xml:space="preserve">
<g>
	<path style="fill:#00F2A9;" d="M91.217,313.724c-5.848,8.768-7,19.848-3.088,29.632l57.752,144.376v-64l32-32l-27.648-165.896
		L91.217,313.724z"/>
	<path style="fill:#00F2A9;" d="M334.545,225.836l-28.664,165.896l32,32v64l57.752-144.368c3.912-9.784,2.76-20.864-3.088-29.632
		L334.545,225.836z"/>
</g>
<g>
	<path style="fill:#322153;" d="M342.145,190.82l3.632-21.776c0.312-1.872-0.056-3.8-1.032-5.432l-96-160
		c-2.888-4.816-10.832-4.816-13.72,0l-96,160c-0.976,1.632-1.344,3.552-1.032,5.432l3.832,22.976l-57.256,85.264
		c-7.304,10.968-8.752,24.824-3.856,37.048L138.465,458.7c1.224,3.088,4.2,5.032,7.408,5.032c0.504,0,1.016-0.048,1.52-0.144
		c3.768-0.72,6.488-4.024,6.488-7.856v-60.688l25.576-25.576l58.84,29.424c1.128,0.56,2.36,0.84,3.584,0.84s2.456-0.28,3.576-0.84
		l58.84-29.424l25.584,25.576v60.688c0,3.832,2.72,7.136,6.488,7.856c0.504,0.096,1.008,0.144,1.52,0.144
		c3.208,0,6.184-1.944,7.424-5.032l57.752-144.368c4.888-12.224,3.448-26.08-3.832-37.016L342.145,190.82z M140.225,386.076
		c-1.504,1.496-2.344,3.528-2.344,5.656v22.464l-42.32-105.8c-2.936-7.344-2.072-15.656,2.296-22.208l47.792-71.168l9.464,56.792
		l14.192,85.184L140.225,386.076z M241.881,382.788l-56.776-28.392l-26.984-161.864l0,0l-3.864-23.2l87.624-146.056l87.624,146.048
		l-30.84,185.072L241.881,382.788z M388.201,308.396l-42.32,105.8v-22.464c0-2.128-0.84-4.16-2.344-5.656l-29.072-29.072
		l24.52-141.904l46.896,71.064C390.273,292.74,391.137,301.052,388.201,308.396z"/>
	<path style="fill:#322153;" d="M241.881,127.732c-22.056,0-40,17.944-40,40s17.944,40,40,40s40-17.944,40-40
		S263.937,127.732,241.881,127.732z M241.881,191.732c-13.232,0-24-10.768-24-24s10.768-24,24-24s24,10.768,24,24
		S255.113,191.732,241.881,191.732z"/>
	<path style="fill:#322153;" d="M241.881,223.732c-4.424,0-8,3.576-8,8v96c0,4.424,3.576,8,8,8c4.424,0,8-3.576,8-8v-96
		C249.881,227.308,246.305,223.732,241.881,223.732z"/>
	<path style="fill:#322153;" d="M153.041,356.156l-32-64c-1.984-3.952-6.784-5.536-10.736-3.576
		c-3.952,1.976-5.552,6.784-3.576,10.736l32,64c1.4,2.8,4.224,4.416,7.16,4.416c1.2,0,2.424-0.272,3.568-0.84
		C153.409,364.908,155.017,360.108,153.041,356.156z"/>
	<path style="fill:#322153;" d="M373.457,288.572c-3.952-1.96-8.76-0.376-10.736,3.576l-32,64c-1.976,3.952-0.376,8.76,3.576,10.736
		c1.152,0.576,2.376,0.848,3.576,0.848c2.936,0,5.76-1.616,7.168-4.424l32-64C379.017,295.356,377.409,290.556,373.457,288.572z"/>
	<path style="fill:#322153;" d="M209.881,415.732c-4.424,0-8,3.576-8,8v32c0,4.424,3.576,8,8,8s8-3.576,8-8v-32
		C217.881,419.308,214.305,415.732,209.881,415.732z"/>
	<path style="fill:#322153;" d="M305.881,383.732c-4.424,0-8,3.576-8,8v32c0,4.424,3.576,8,8,8s8-3.576,8-8v-32
		C313.881,387.308,310.305,383.732,305.881,383.732z"/>
	<path style="fill:#322153;" d="M273.881,415.732c-4.424,0-8,3.576-8,8v32c0,4.424,3.576,8,8,8s8-3.576,8-8v-32
		C281.881,419.308,278.305,415.732,273.881,415.732z"/>
	<path style="fill:#322153;" d="M121.881,71.732v-32c0-4.424-3.576-8-8-8s-8,3.576-8,8v32c0,4.424,3.576,8,8,8
		C118.305,79.732,121.881,76.156,121.881,71.732z"/>
	<path style="fill:#322153;" d="M401.881,159.732c-4.424,0-8,3.576-8,8v32c0,4.424,3.576,8,8,8s8-3.576,8-8v-32
		C409.881,163.308,406.305,159.732,401.881,159.732z"/>
</g>
<g>
</g>
<g>
</g>
<g>
</g>
<g>
</g>
<g>
</g>
<g>
</g>
<g>
</g>
<g>
</g>
<g>
</g>
<g>
</g>
<g>
</g>
<g>
</g>
<g>
</g>
<g>
</g>
<g>
</g>
</svg>
