<?xml version="1.0" encoding="iso-8859-1"?>
<!-- Generator: Adobe Illustrator 19.0.0, SVG Export Plug-In . SVG Version: 6.00 Build 0)  -->
<svg version="1.1" id="Capa_1" xmlns="http://www.w3.org/2000/svg" xmlns:xlink="http://www.w3.org/1999/xlink" x="0px" y="0px"
	 viewBox="0 0 464 464" style="enable-background:new 0 0 464 464;" xml:space="preserve">
<path style="fill:#00F2A9;" d="M129.6,367.929l50,53.28c1.44,1.52,2.96,3.04,4.48,4.4c27.28,24.48,68.72,24.56,95.92,0
	c1.52-1.36,2.96-2.8,4.4-4.32l50-53.36c16.08-12.16,25.6-31.2,25.6-51.36v-0.24c0-17.76-14.32-32.328-32-32.328h-18.72
	c-8.48,0-16.64-3.192-22.64-9.192L264,252.169l-4-4.08c-8.8,2.72-18.24,4.16-28,4.16s-19.12-1.44-27.92-4.16l-4.08,4.16l-16,16
	l-6.64,6.552c-6,6.008-14.16,9.2-22.64,9.2H136c-17.68,0-32,14.568-32,32.328v0.08C104,336.649,113.52,355.769,129.6,367.929z"/>
<g>
	<path style="fill:#322153;" d="M28.256,342.009l49.552,52.752c15.832,16.856,37.024,25.416,58.296,25.416
		c16.84,0,33.704-5.408,48.016-16.24c13.728,10.376,30.296,16.048,47.896,16.048c17.616,0,34.184-5.68,47.912-16.072
		c14.32,10.856,31.2,16.272,48.048,16.272c21.264,0,42.464-8.552,58.296-25.416l49.504-52.752
		C453.472,328.433,464,307.065,464,284.401c0-22.272-17.928-40.4-39.976-40.4h-18.752c-6.608,0-12.64-2.4-16.992-6.768
		l-17.904-17.824c36.272-16.264,61.648-52.64,61.648-94.888c0-57.344-46.672-104-104.04-104c-16.536,0-32.776,4.112-47.4,11.6
		c-13.384-7.104-28.504-11.288-44.528-11.912c-0.512-0.024-1.024-0.064-1.544-0.08c-0.84-0.024-1.664-0.128-2.512-0.128
		c-1.648,0-3.248,0.168-4.872,0.248c-0.968,0.04-1.936,0.08-2.904,0.144c-2.208,0.168-4.384,0.416-6.56,0.712
		c-1.224,0.168-2.448,0.352-3.664,0.56c-1.912,0.336-3.8,0.72-5.672,1.16c-1.536,0.352-3.064,0.76-4.584,1.184
		c-1.52,0.432-3.024,0.872-4.512,1.368c-1.92,0.632-3.824,1.344-5.712,2.096c-1.04,0.416-2.088,0.824-3.112,1.28
		c-2.288,0.992-4.536,2.096-6.76,3.264c-0.064,0.032-0.128,0.056-0.192,0.096c-14.6-7.48-30.824-11.584-47.344-11.584
		c-57.376,0-104.048,46.656-104.048,104c0,42.248,25.376,78.624,61.656,94.888l-17.928,17.84
		c-4.344,4.352-10.368,6.744-16.976,6.744h-18.76C17.968,244.001,0,262.129,0,284.705C0,307.049,10.552,328.417,28.256,342.009z
		 M185.408,383.761l-49.968-53.336c-0.312-0.336-0.656-0.64-1.024-0.92C120.384,318.929,112,302.081,112,284.329
		c0-13.416,10.768-24.328,24-24.328h18.744c10.824,0,20.872-4.112,28.28-11.536l0.944-0.936l38.296,38.232l-29.416,58.752
		c-1.536,3.08-0.936,6.808,1.504,9.24l32,31.96c1.56,1.552,3.608,2.336,5.656,2.336c2.048,0,4.096-0.784,5.656-2.336l32-31.96
		c2.44-2.44,3.04-6.168,1.504-9.24l-29.416-58.752l38.328-38.208l0.888,0.888c7.416,7.448,17.472,11.56,28.288,11.56H328
		c13.232,0,24,10.912,24,24.52c0,17.616-8.384,34.456-22.416,45.024c-0.368,0.272-0.712,0.584-1.024,0.92l-49.968,53.304
		c-12.216,13.032-28.76,20.2-46.576,20.2C214.184,403.977,197.632,396.801,185.408,383.761z M199.152,42.433
		c1.76-0.712,3.544-1.368,5.36-1.968c1.128-0.368,2.256-0.704,3.4-1.024c1.312-0.376,2.64-0.712,3.976-1.024
		c1.48-0.344,2.952-0.672,4.448-0.936c0.96-0.176,1.944-0.304,2.92-0.448c1.792-0.256,3.584-0.512,5.392-0.664
		c0.32-0.024,0.64-0.024,0.96-0.048c9.656-0.68,19.392,0.2,28.8,2.672c0.048,0.016,0.104,0.024,0.152,0.04
		c2.344,0.624,4.664,1.344,6.96,2.16c0.144,0.048,0.28,0.104,0.424,0.152c2.232,0.808,4.44,1.704,6.616,2.696
		c0.184,0.088,0.368,0.176,0.552,0.264c2.144,1,4.256,2.072,6.328,3.248c0.144,0.08,0.28,0.176,0.424,0.256
		c4.32,2.488,8.48,5.352,12.408,8.616L272,72.689V60.001c0-3.232-1.944-6.152-4.936-7.392c-0.992-0.408-2.032-0.608-3.064-0.608
		c-2.08,0-4.128,0.816-5.656,2.344L240,72.689V60.001c0-3.232-1.944-6.152-4.936-7.392c-2.984-1.232-6.432-0.56-8.72,1.736
		L208,72.689V60.001c0-3.232-1.944-6.152-4.936-7.392c-2.984-1.232-6.424-0.56-8.72,1.736L176,72.689V56.201
		c6.392-5.296,13.552-9.68,21.264-13.016C197.888,42.921,198.52,42.681,199.152,42.433z M160,73.617v18.384
		c0,3.232,1.944,6.152,4.936,7.392c2.992,1.232,6.432,0.56,8.72-1.736L192,79.313v12.688c0,3.232,1.944,6.152,4.936,7.392
		c3,1.232,6.432,0.56,8.72-1.736L224,79.313v12.688c0,3.232,1.944,6.152,4.936,7.392c3,1.232,6.432,0.56,8.72-1.736L256,79.313
		v12.688c0,3.232,1.944,6.152,4.936,7.392c0.992,0.408,2.032,0.608,3.064,0.608c2.08,0,4.128-0.816,5.656-2.344l29.904-29.904
		C312.304,83.041,320,102.697,320,124.137c0,48.6-39.48,88.136-88,88.136s-88-39.536-88-88.136
		C144,105.337,149.952,87.937,160,73.617z M206.32,224.921c8.232,2.104,16.8,3.344,25.68,3.344c8.896,0,17.488-1.248,25.736-3.36
		c0.224,0.296,0.336,0.648,0.608,0.912l6.92,6.92L232,243.793l-33.192-11.048l6.84-6.816
		C205.944,225.633,206.08,225.249,206.32,224.921z M232,302.041l22.264,44.472L232,368.745l-22.264-22.232L232,302.041z
		 M232.008,272.873l-18.36-18.328l15.832,5.264c1.64,0.544,3.408,0.544,5.048,0l15.872-5.272L232.008,272.873z M354.352,226.041
		l22.616,22.512c7.36,7.384,17.416,11.448,28.304,11.448h18.752c13.216,0,23.976,10.944,23.976,24.704
		c0,17.6-8.376,34.4-22.4,44.952c-0.368,0.272-0.712,0.576-1.032,0.912L374.6,383.801c-21.992,23.424-56.888,26.744-82.608,9.064
		l47.784-50.968c17.688-13.6,28.224-35,28.224-57.568c0-22.232-17.944-40.328-40-40.328h-18.744c-6.536,0-12.56-2.44-16.976-6.864
		l-17.968-17.968c1.856-0.832,3.688-1.712,5.488-2.648c14.824,7.76,31.336,12.016,48.184,12.016c8.912,0,17.52-1.248,25.784-3.368
		C353.984,225.449,354.096,225.785,354.352,226.041z M327.984,36.529c48.544,0,88.04,39.48,88.04,88s-39.496,88-88.04,88
		c-11.128,0-22.096-2.176-32.344-6.216c24.504-19.064,40.36-48.768,40.36-82.176c0-33.096-15.552-62.568-39.656-81.656
		C306.392,38.617,317.12,36.529,327.984,36.529z M48.056,124.529c0-48.52,39.504-88,88.048-88c10.824,0,21.496,2.08,31.504,5.912
		c-0.464,0.368-0.928,0.744-1.384,1.12c-0.176,0.144-0.352,0.28-0.528,0.424c-0.96,0.8-1.968,1.512-2.904,2.344
		c-0.128,0.112-0.24,0.216-0.36,0.336c-0.096,0.08-0.184,0.16-0.28,0.232l0.016,0.016c-0.296,0.296-0.424,0.584-0.656,0.88
		C140.96,66.833,128,93.961,128,124.137c0,33.416,15.872,63.128,40.384,82.2c-10.232,4.024-21.184,6.2-32.288,6.2
		C87.552,212.529,48.056,173.049,48.056,124.529z M40.056,260.001h18.76c10.896,0,20.944-4.064,28.272-11.424l22.64-22.536
		c0.256-0.256,0.368-0.592,0.584-0.88c8.264,2.12,16.872,3.368,25.792,3.368c16.824,0,33.328-4.248,48.136-12
		c1.8,0.936,3.632,1.824,5.496,2.656l-18.024,17.952c-4.408,4.424-10.432,6.864-16.968,6.864H136c-22.056,0-40,18.096-40,40.432
		c0,22.408,10.536,43.824,28.216,57.424l47.832,51.048c-25.72,17.648-60.584,14.328-82.576-9.096l-50.016-53.232
		c-0.312-0.336-0.656-0.64-1.024-0.912C24.392,319.089,16,302.281,16,284.401C16,270.945,26.792,260.001,40.056,260.001z"/>
	<path style="fill:#322153;" d="M66.344,321.657c1.56,1.56,3.608,2.344,5.656,2.344s4.096-0.784,5.656-2.344
		c3.128-3.128,3.128-8.184,0-11.312l-32-32c-3.128-3.128-8.184-3.128-11.312,0s-3.128,8.184,0,11.312L66.344,321.657z"/>
	<path style="fill:#322153;" d="M392,324.001c2.048,0,4.096-0.784,5.656-2.344l32-32c3.128-3.128,3.128-8.184,0-11.312
		s-8.184-3.128-11.312,0l-32,32c-3.128,3.128-3.128,8.184,0,11.312C387.904,323.217,389.952,324.001,392,324.001z"/>
</g>
<g>
</g>
<g>
</g>
<g>
</g>
<g>
</g>
<g>
</g>
<g>
</g>
<g>
</g>
<g>
</g>
<g>
</g>
<g>
</g>
<g>
</g>
<g>
</g>
<g>
</g>
<g>
</g>
<g>
</g>
</svg>
